<svg xmlns="http://www.w3.org/2000/svg" width="91" height="31" fill="none" viewBox="0 0 91 31">
  <path fill="#4EA8DE" d="M15 8.182v5.682H.625V8.182H15ZM3.41 2.955h7.84v20.028c0 .303.052.559.156.767.104.199.265.35.483.454.218.095.497.143.838.143.237 0 .512-.029.824-.086.322-.056.559-.104.71-.142l1.137 5.512c-.35.104-.852.232-1.506.383-.644.152-1.41.251-2.301.299-1.8.094-3.31-.09-4.531-.554-1.222-.474-2.14-1.217-2.756-2.23-.616-1.014-.914-2.283-.895-3.807V2.955Zm25.067 27.443c-2.368 0-4.394-.469-6.08-1.407-1.686-.947-2.978-2.263-3.878-3.948-.9-1.695-1.35-3.66-1.35-5.895 0-2.235.45-4.195 1.35-5.881a9.559 9.559 0 0 1 3.878-3.949c1.686-.947 3.712-1.42 6.08-1.42 2.367 0 4.393.473 6.08 1.42a9.559 9.559 0 0 1 3.877 3.949c.9 1.686 1.35 3.646 1.35 5.88 0 2.236-.45 4.2-1.35 5.896a9.667 9.667 0 0 1-3.878 3.948c-1.685.938-3.712 1.407-6.08 1.407Zm.056-5.796a2.45 2.45 0 0 0 1.72-.667c.482-.445.856-1.08 1.121-1.904.265-.824.398-1.804.398-2.94 0-1.146-.133-2.126-.398-2.94-.265-.824-.639-1.459-1.122-1.904a2.45 2.45 0 0 0-1.719-.668c-.7 0-1.302.223-1.804.668-.502.445-.885 1.08-1.15 1.904-.265.814-.398 1.794-.398 2.94 0 1.136.133 2.116.398 2.94.265.824.648 1.459 1.15 1.904.502.445 1.104.667 1.804.667Z"/>
  <path fill="#5E60CE" d="M50.863 30.284a7.955 7.955 0 0 1-4.29-1.221c-1.297-.815-2.339-2.05-3.125-3.708-.776-1.657-1.165-3.745-1.165-6.264 0-2.633.408-4.773 1.222-6.42.824-1.648 1.884-2.856 3.182-3.623 1.307-.767 2.68-1.15 4.12-1.15 1.079 0 2.026.19 2.84.568.814.37 1.496.866 2.046 1.491a6.611 6.611 0 0 1 1.25 2.032h.113V.909h7.841V30h-7.784v-3.58h-.17a6.134 6.134 0 0 1-3.352 3.366c-.796.332-1.705.498-2.728.498Zm2.898-6.023c.72 0 1.335-.208 1.846-.625.521-.426.919-1.022 1.193-1.79.285-.776.427-1.695.427-2.755 0-1.08-.142-2.003-.427-2.77-.274-.777-.672-1.368-1.193-1.776-.511-.416-1.127-.624-1.846-.624-.72 0-1.336.208-1.847.625-.502.407-.89.998-1.165 1.775-.265.767-.397 1.69-.397 2.77s.132 2.008.397 2.784c.275.767.663 1.359 1.165 1.776.511.407 1.127.61 1.847.61Zm25.497 6.137c-2.368 0-4.394-.469-6.08-1.407-1.685-.947-2.978-2.263-3.878-3.948-.9-1.695-1.349-3.66-1.349-5.895 0-2.235.45-4.195 1.35-5.881a9.559 9.559 0 0 1 3.877-3.949c1.686-.947 3.712-1.42 6.08-1.42 2.367 0 4.394.473 6.08 1.42a9.559 9.559 0 0 1 3.877 3.949c.9 1.686 1.35 3.646 1.35 5.88 0 2.236-.45 4.2-1.35 5.896a9.667 9.667 0 0 1-3.878 3.948c-1.685.938-3.712 1.407-6.08 1.407Zm.057-5.796c.663 0 1.235-.222 1.718-.667.483-.445.857-1.08 1.123-1.904.265-.824.397-1.804.397-2.94 0-1.146-.132-2.126-.397-2.94-.266-.824-.64-1.459-1.123-1.904a2.451 2.451 0 0 0-1.718-.668c-.701 0-1.302.223-1.804.668-.502.445-.886 1.08-1.15 1.904-.266.814-.399 1.794-.399 2.94 0 1.136.133 2.116.398 2.94.265.824.649 1.459 1.15 1.904.502.445 1.104.667 1.805.667Z"/>
</svg>
